<?xml version="1.0" encoding="UTF-8"?>
<svg version="1.1" xmlns="http://www.w3.org/2000/svg" width="1024" height="1024">
<path d="M0 0 C337.92 0 675.84 0 1024 0 C1024 337.92 1024 675.84 1024 1024 C686.08 1024 348.16 1024 0 1024 C0 686.08 0 348.16 0 0 Z " fill="#F2F1ED" transform="translate(0,0)"/>
<path d="M0 0 C3.56734039 0.01902428 7.13469219 0.02053716 10.70207548 0.02407622 C17.42704003 0.03332236 24.15185457 0.05783297 30.87675369 0.08812469 C38.54568586 0.12190327 46.214626 0.13821306 53.8836143 0.153211 C69.63118117 0.18439118 85.37859918 0.23700339 101.12605619 0.30418181 C101.22002757 16.7782402 101.29029138 33.25220996 101.33330488 49.72647262 C101.35381896 57.3779558 101.38172233 65.02927125 101.42781401 72.68064666 C101.46802754 79.35948597 101.49356974 86.03820366 101.50241017 92.7171607 C101.50756743 96.24469615 101.51944673 99.77188404 101.54897642 103.29930663 C101.85285183 141.10963457 93.63166357 172.67257954 67.48933744 200.93699431 C51.2763579 217.17677217 31.06672171 227.3373552 9.12605619 233.30418181 C8.46518003 233.49003341 7.80430387 233.675885 7.12340117 233.86736846 C-0.73165486 235.75729961 -8.60943316 235.48035518 -16.62646151 235.36461997 C-21.10331485 235.307443 -25.58037604 235.30867611 -30.05753756 235.29832244 C-35.72634427 235.28080691 -41.39376534 235.24661304 -47.06193209 235.15696502 C-51.67122724 235.0855871 -56.27803586 235.06837104 -60.88781404 235.08622718 C-62.63250087 235.08312284 -64.37727576 235.06046 -66.12142611 235.01708579 C-76.17727921 234.63168384 -76.17727921 234.63168384 -85.07169771 238.63966155 C-87.62049478 241.40826608 -89.75151784 244.20141906 -91.87394381 247.30418181 C-93.38162685 249.16905712 -94.90082412 251.02474255 -96.43644381 252.86668181 C-97.16992037 253.77547088 -97.90339693 254.68425994 -98.65910006 255.62058806 C-100.83027207 258.25126738 -103.07635737 260.78360606 -105.37394381 263.30418181 C-108.39676801 266.62407668 -111.29906542 270.00182293 -114.12394381 273.49168181 C-118.2847915 278.63112609 -122.59128869 283.62744333 -126.93326998 288.61326385 C-130.92035601 293.19461528 -134.86179886 297.81128624 -138.77531099 302.455549 C-142.15876329 306.46802366 -145.57494565 310.45128569 -148.99894381 314.42918181 C-152.49218237 318.49039057 -155.93843087 322.57937152 -159.31144381 326.74168181 C-164.99608711 333.7413519 -170.9418567 340.51446742 -176.87394381 347.30418181 C-177.66156099 348.20652556 -178.44917818 349.10886931 -179.26066256 350.03855681 C-180.79644698 351.79551912 -182.33440964 353.5505077 -183.87394381 355.30418181 C-189.8756936 350.36453943 -195.36523357 344.96612864 -200.84415865 339.46433806 C-202.36730769 337.93584123 -203.89571383 336.41274943 -205.42472506 334.89011931 C-209.50582558 330.81146836 -213.57058889 326.74611269 -217.31535006 322.35105681 C-222.79374932 315.9466845 -228.98975252 310.16549867 -235.00455904 304.26951385 C-236.63069299 302.67339283 -238.25070275 301.07125858 -239.87003756 299.46824431 C-240.37304888 298.97869262 -240.8760602 298.48914092 -241.39431429 297.98475432 C-242.59256373 296.79534644 -243.73877744 295.55393785 -244.87394381 294.30418181 C-244.87394381 293.64418181 -244.87394381 292.98418181 -244.87394381 292.30418181 C-252.64015349 299.98777225 -259.79797357 308.11759194 -266.65519381 316.61668181 C-268.84669648 319.27117801 -271.11642063 321.82419066 -273.43644381 324.36668181 C-276.37705877 327.59269442 -279.17261994 330.87537271 -281.87394381 334.30418181 C-284.57526767 337.73299092 -287.37082884 341.01566921 -290.31144381 344.24168181 C-293.35612228 347.5820105 -296.28090126 350.97815939 -299.12394381 354.49168181 C-302.72864466 358.94270373 -306.42764648 363.29616786 -310.18644381 367.61668181 C-310.73751802 368.25017547 -311.28859224 368.88366912 -311.85636568 369.53635955 C-312.97556866 370.82249836 -314.09487218 372.10854969 -315.21427584 373.39451385 C-321.40353249 380.51607394 -327.56636515 387.65401874 -333.49894381 394.99168181 C-336.53197712 398.73224008 -339.67561438 402.32294938 -342.93644381 405.86668181 C-346.0196776 409.2202915 -348.98397319 412.60733629 -351.81144381 416.17918181 C-352.44018404 416.93505584 -353.06892427 417.69092986 -353.71671724 418.46970916 C-355.97322935 421.27982197 -355.97322935 421.27982197 -357.65079927 424.61985564 C-360.06455359 428.74979174 -362.61355324 431.99005085 -366.87394381 434.30418181 C-375.70456421 436.37917316 -385.06149601 435.59364344 -394.05228853 435.19682097 C-397.41690364 435.0626166 -400.78280149 435.00421023 -404.14933443 434.93894744 C-410.72752877 434.79630186 -417.30002993 434.57934881 -423.87394381 434.30418181 C-422.08980599 430.52713483 -419.72030458 427.56862875 -416.99894381 424.42918181 C-416.51425631 423.86328338 -416.02956881 423.29738494 -415.53019381 422.71433806 C-413.98173596 420.90780391 -412.42789531 419.105991 -410.87394381 417.30418181 C-409.37215796 415.55419896 -407.87180643 413.80299369 -406.3715024 412.05174041 C-405.36715649 410.87973062 -404.36226712 409.70818634 -403.35685396 408.53709197 C-399.55744298 404.11036773 -395.78507592 399.66146486 -392.02286959 395.2031076 C-388.62076745 391.17555616 -385.1879136 387.17526363 -381.74894381 383.17918181 C-378.25574898 379.11793371 -374.80945829 375.02899403 -371.43644381 370.86668181 C-365.20425198 363.19715566 -358.66208362 355.79355949 -352.16691256 348.34715056 C-346.08436917 341.36970425 -340.06846062 334.36481245 -334.24113131 327.17136931 C-330.83957525 323.05133277 -327.32772046 319.03030682 -323.82023287 315.00047088 C-316.83844482 306.9752866 -309.94789591 298.88026806 -303.24894381 290.61668181 C-299.67578748 286.2233526 -295.93770151 282.01997151 -292.12394381 277.83543181 C-289.79532327 275.21573372 -287.57831433 272.52902872 -285.37394381 269.80418181 C-282.46581001 266.20940531 -279.48853049 262.72157554 -276.37394381 259.30418181 C-273.3511196 255.98428695 -270.44882219 252.6065407 -267.62394381 249.11668181 C-263.8006826 244.42357811 -259.96199932 239.74572665 -256.06144381 235.11668181 C-255.23434908 234.10795012 -255.23434908 234.10795012 -254.39054537 233.07884002 C-253.59922213 232.14817718 -253.59922213 232.14817718 -252.79191256 231.19871306 C-252.09231417 230.36110442 -252.09231417 230.36110442 -251.37858248 229.50657439 C-249.87394381 228.30418181 -249.87394381 228.30418181 -245.87394381 228.30418181 C-243.69498873 230.01316619 -243.69498873 230.01316619 -241.35441256 232.39793181 C-240.49654146 233.26418181 -239.63867037 234.13043181 -238.75480318 235.02293181 C-237.86599459 235.94074431 -236.97718599 236.85855681 -236.06144381 237.80418181 C-235.18423677 238.69105681 -234.30702974 239.57793181 -233.40324068 240.49168181 C-229.67133313 244.28778823 -226.02273229 248.11409139 -222.54240084 252.14231658 C-218.94202666 256.27996995 -215.14383439 260.17905771 -211.26066256 264.05027556 C-210.21722437 265.09514884 -210.21722437 265.09514884 -209.15270662 266.16113067 C-207.69765035 267.6168618 -206.24135318 269.07135362 -204.78385592 270.5246408 C-202.54643485 272.75665449 -200.31446703 274.99402316 -198.08292818 277.23191619 C-196.66332726 278.65085716 -195.24341663 280.06948836 -193.82316256 281.48777556 C-193.15548357 282.15747878 -192.48780458 282.827182 -191.7998929 283.51717925 C-191.18197374 284.13194625 -190.56405458 284.74671325 -189.9274106 285.38010955 C-189.3844887 285.92223586 -188.84156679 286.46436217 -188.28219271 287.02291656 C-186.88210117 288.41307575 -186.88210117 288.41307575 -184.87394381 289.30418181 C-184.65480318 288.77566619 -184.43566256 288.24715056 -184.20988131 287.70261931 C-182.38322134 284.42317715 -179.96294498 281.7364347 -177.49894381 278.92918181 C-176.41163684 277.67533399 -175.32439923 276.42142602 -174.23722506 275.16746306 C-173.67986666 274.52760467 -173.12250826 273.88774627 -172.54826021 273.22849822 C-169.91501474 270.20207057 -167.29918986 267.16080928 -164.68644381 264.11668181 C-164.18596529 263.5344284 -163.68548677 262.95217498 -163.16984224 262.35227752 C-160.14040489 258.81710514 -157.17570638 255.23784324 -154.24894381 251.61668181 C-150.44834818 246.93110995 -146.427564 242.49206548 -142.34269381 238.05418181 C-139.93016277 235.36680547 -137.6413817 232.61452738 -135.37394381 229.80418181 C-131.53209792 225.04245734 -127.47059873 220.53797274 -123.32706881 216.03855681 C-120.99678112 213.44110239 -118.80147213 210.78012468 -116.62394381 208.05418181 C-111.74198774 201.99951388 -106.42384942 196.39317197 -101.09269381 190.73777556 C-98.2168153 187.68379613 -95.43880856 184.56134794 -92.70206881 181.38230681 C-89.72308326 177.99593863 -86.64575329 174.7001936 -83.5746274 171.39744353 C-81.39816588 169.05305199 -79.22847653 166.7091857 -77.12125826 164.30198455 C-69.85365233 156.03959347 -62.0417258 148.32119053 -54.25358248 140.55344939 C-51.81012459 138.1153655 -49.37207574 135.67196393 -46.93449068 133.22800994 C-45.3612436 131.65542349 -43.78768644 130.08314717 -42.21378756 128.51121306 C-41.49585527 127.79125655 -40.77792299 127.07130004 -40.03823519 126.32952666 C-35.47648865 121.7885868 -30.76326508 117.4891097 -25.87394381 113.30418181 C-24.77966798 112.35426637 -23.68582685 111.4038496 -22.59269381 110.45261931 C-9.46235905 99.11315226 3.85377981 88.18327312 18.12605619 78.30418181 C-14.688644 90.90340621 -44.80450024 106.65247144 -71.87394381 129.30418181 C-73.37634615 130.5474826 -73.37634615 130.5474826 -74.90910006 131.81590056 C-90.50374325 144.79929303 -106.09187659 158.60572085 -118.70206881 174.55808806 C-121.19835126 177.71435887 -123.78069799 180.79009047 -126.37394381 183.86668181 C-129.4372604 187.37917742 -129.4372604 187.37917742 -131.87394381 191.30418181 C-132.53394381 191.30418181 -133.19394381 191.30418181 -133.87394381 191.30418181 C-133.94388016 180.49793171 -133.99697445 169.69173667 -134.02938032 158.88530517 C-134.04494433 153.86583166 -134.06601034 148.84651456 -134.10026217 143.82713103 C-134.13318984 138.97063479 -134.1508662 134.11428767 -134.15857553 129.25768828 C-134.16405976 127.41760708 -134.17476629 125.57753275 -134.19113398 123.73751616 C-134.28973705 112.17849531 -133.43060002 101.59600757 -130.87394381 90.30418181 C-130.66154558 89.24759368 -130.44914736 88.19100554 -130.23031282 87.10239959 C-124.77360639 60.2816686 -105.24519889 34.61719153 -82.68644381 19.67918181 C-55.98431836 3.57434371 -30.85411571 -0.19291314 0 0 Z " fill="#2D6647" transform="translate(669.8739438056946,294.6958181858063)"/>
<path d="M0 0 C1.18637306 -0.00021904 1.18637306 -0.00021904 2.39671326 -0.0004425 C4.99383347 0.0002505 7.5908807 0.0080141 10.18798828 0.01586914 C11.99545248 0.0177355 13.80291719 0.01915837 15.61038208 0.02015686 C20.35487274 0.0239649 25.09933253 0.03378051 29.84381104 0.04486084 C34.69030337 0.05511184 39.53680072 0.05966237 44.38330078 0.06469727 C53.88331431 0.07540437 63.38330497 0.09246015 72.88330078 0.11352539 C72.92974808 10.91031027 72.96523283 21.70707117 72.98692513 32.50393581 C72.99733906 37.51795939 73.01145446 42.53191434 73.03417969 47.54589844 C73.05599348 52.38938632 73.06788737 57.2328084 73.07305527 62.07634163 C73.07673574 63.91940407 73.08392261 65.76246312 73.09476089 67.60549736 C73.10938942 70.19736238 73.11127401 72.78895937 73.11035156 75.38085938 C73.11754211 76.13396393 73.12473267 76.88706848 73.13214111 77.66299438 C73.06243515 95.89646637 64.5286112 112.70618333 52.25048828 125.76977539 C39.07007428 138.81969024 22.17059449 147.22873218 3.44898987 147.2268219 C2.67578903 147.22166061 1.9025882 147.21649933 1.10595703 147.21118164 C0.294608 147.20976669 -0.51674103 147.20835175 -1.35267639 147.20689392 C-3.91988969 147.20133896 -6.4870127 147.18879507 -9.05419922 147.17602539 C-10.80484899 147.17100456 -12.55550015 147.16644268 -14.30615234 147.16235352 C-18.57636892 147.15138432 -22.84651881 147.13415122 -27.11669922 147.11352539 C-24.39424991 142.27277889 -21.53825685 137.843803 -18.17919922 133.42602539 C-7.11252119 118.55629409 2.45689653 102.80871915 11.47216797 86.63012695 C12.83241156 84.20428077 14.21688085 81.79412543 15.60986328 79.38696289 C20.51598969 70.84578882 24.68045011 62.29022192 28.27783203 53.12133789 C30.23056796 48.15618614 32.51085605 43.36570121 34.81689453 38.55493164 C36.01672756 36.25208588 36.01672756 36.25208588 35.88330078 34.11352539 C-1.84168002 46.25832184 -35.39063049 67.65186747 -65.12060547 93.54711914 C-67.40355897 95.5026608 -69.68112141 97.35681279 -72.11669922 99.11352539 C-73.31789971 95.50992393 -73.23030842 92.25512647 -73.17138672 88.50805664 C-73.15375778 87.37275764 -73.15375778 87.37275764 -73.13577271 86.21452332 C-73.10702206 84.60470406 -73.0748545 82.99494278 -73.03955078 81.38525391 C-73.00810588 79.76921037 -72.98664377 78.15293597 -72.97607422 76.53662109 C-72.88041319 62.04845876 -70.53575265 48.6340317 -63.11669922 35.92602539 C-62.73916504 35.2736792 -62.36163086 34.62133301 -61.97265625 33.94921875 C-51.13909208 16.16790174 -33.94518703 5.98902623 -14.11669922 1.11352539 C-9.38895733 0.16002207 -4.80548768 -0.02347942 0 0 Z " fill="#3C7E54" transform="translate(653.11669921875,338.886474609375)"/>
<path d="M0 0 C54.78 0 109.56 0 166 0 C166 0.33 166 0.66 166 1 C165.14921875 1.09796875 164.2984375 1.1959375 163.421875 1.296875 C124.52010606 6.09751883 91.75847455 20.34621359 61.74560547 45.54150391 C60.59655175 46.50156641 59.43944809 47.45208868 58.27392578 48.39208984 C55.69577499 50.48035298 53.85845878 52.21231183 52 55 C51.34 55 50.68 55 50 55 C49.75121094 55.57234375 49.50242188 56.1446875 49.24609375 56.734375 C47.81547366 59.33550243 46.12599638 61.11560591 44.0625 63.25 C18.29543734 91.41977911 4.87834787 128.54332455 1 166 C0.67 166 0.34 166 0 166 C0 111.22 0 56.44 0 0 Z " fill="#FEFEFE" transform="translate(0,0)"/>
<path d="M0 0 C52.8 0 105.6 0 160 0 C160 54.12 160 108.24 160 164 C159.67 164 159.34 164 159 164 C158.84144531 162.77667969 158.68289063 161.55335938 158.51953125 160.29296875 C155.00733471 134.42807595 147.81529891 107.71484313 132.45703125 86.16015625 C131 84 131 84 129.1484375 80.671875 C127.01990114 76.9043807 124.51260093 73.56107602 121.8125 70.1875 C121.33127686 69.58220459 120.85005371 68.97690918 120.35424805 68.35327148 C114.38627061 60.9078281 108.25593086 53.78081131 100.93359375 47.62890625 C99.69195476 46.58291946 98.47301457 45.50902724 97.28515625 44.40234375 C87.79228558 35.61572604 76.30427276 28.23319713 65 22 C64.02804687 21.46117188 63.05609375 20.92234375 62.0546875 20.3671875 C42.62553589 10.12439599 21.65749172 4.17142461 0 1 C0 0.67 0 0.34 0 0 Z " fill="#FEFEFE" transform="translate(864,0)"/>
<path d="M0 0 C0.33 0 0.66 0 1 0 C1 54.12 1 108.24 1 164 C-51.14 164 -103.28 164 -157 164 C-153.87888371 162.43944185 -152.18782124 161.70107759 -148.9375 161.140625 C-148.15076904 160.99778076 -147.36403809 160.85493652 -146.5534668 160.70776367 C-145.28950073 160.48117065 -145.28950073 160.48117065 -144 160.25 C-96.71094623 151.20403793 -56.42158574 123.54581018 -29 84 C-12.73565167 59.02503834 -1.86837661 29.85589562 0 0 Z " fill="#FEFEFE" transform="translate(1023,860)"/>
<path d="M0 0 C7.73715028 4.46505148 12.21511232 10.95586493 14.66015625 19.53515625 C15.89590865 29.25857646 14.69366822 36.65072234 9.1875 44.68359375 C4.24925019 50.96439375 -2.46481909 54.99930058 -10.33984375 56.53515625 C-19.66996954 57.6452164 -26.56000852 55.79301884 -34.33984375 50.53515625 C-41.07922672 44.96150439 -44.43906943 37.57127281 -45.71875 28.99609375 C-46.12855535 20.6677915 -43.45445701 12.78786887 -38.33984375 6.22265625 C-27.59154567 -4.86867261 -13.65891426 -6.46054047 0 0 Z " fill="#D5795D" transform="translate(773.33984375,738.46484375)"/>
<path d="M0 0 C0.99 0.66 1.98 1.32 3 2 C2.67644531 2.70511719 2.35289062 3.41023437 2.01953125 4.13671875 C-0.72476004 11.84386632 0.65677674 19.7563496 4 27 C3.34 27.33 2.68 27.66 2 28 C-2.18171545 18.18043603 -3.54366842 10.1880467 0 0 Z " fill="#C8816B" transform="translate(730,753)"/>
<path d="M0 0 C-1.65863505 4.32504836 -4.871041 7.09418825 -8.125 10.25 C-8.68832031 10.80429687 -9.25164063 11.35859375 -9.83203125 11.9296875 C-11.21686028 13.29104485 -12.60783204 14.64614859 -14 16 C-14.66 15.34 -15.32 14.68 -16 14 C-13.71643754 11.65861457 -11.42186626 9.32833018 -9.125 7 C-8.47402344 6.33226562 -7.82304688 5.66453125 -7.15234375 4.9765625 C-6.52714844 4.34492188 -5.90195312 3.71328125 -5.2578125 3.0625 C-4.6817627 2.47597656 -4.10571289 1.88945312 -3.51220703 1.28515625 C-2 0 -2 0 0 0 Z " fill="#39664C" transform="translate(579,322)"/>
<path d="M0 0 C0 4.24164786 -2.42939027 6.06840198 -5.1875 9 C-5.91163086 9.80050781 -5.91163086 9.80050781 -6.65039062 10.6171875 C-9.51402624 13.70760768 -12.22811907 16.01407366 -16 18 C-14.6415798 14.95667235 -13.11536976 12.87690849 -10.7421875 10.546875 C-10.11699219 9.928125 -9.49179687 9.309375 -8.84765625 8.671875 C-8.19667969 8.03765625 -7.54570313 7.4034375 -6.875 6.75 C-6.21628906 6.1003125 -5.55757812 5.450625 -4.87890625 4.78125 C-3.25703357 3.18288273 -1.6306719 1.58938103 0 0 Z " fill="#DEEDE3" transform="translate(573,445)"/>
<path d="M0 0 C0.66 0.33 1.32 0.66 2 1 C-6.07744875 9.81548975 -6.07744875 9.81548975 -12 11 C-12.66 10.34 -13.32 9.68 -14 9 C-13.32453125 8.68546875 -12.6490625 8.3709375 -11.953125 8.046875 C-5.32416431 4.93666114 -5.32416431 4.93666114 0 0 Z " fill="#FAE3D7" transform="translate(781,784)"/>
<path d="M0 0 C0.66 0 1.32 0 2 0 C1.83628906 0.84820313 1.67257812 1.69640625 1.50390625 2.5703125 C0.99051555 6.0645531 0.90149261 9.34627574 0.9375 12.875 C0.94652344 14.02742187 0.95554687 15.17984375 0.96484375 16.3671875 C0.97644531 17.23601563 0.98804688 18.10484375 1 19 C0.34 19.33 -0.32 19.66 -1 20 C-1.02888514 16.85418577 -1.04675923 13.70840531 -1.0625 10.5625 C-1.07087891 9.66466797 -1.07925781 8.76683594 -1.08789062 7.84179688 C-1.09111328 6.98779297 -1.09433594 6.13378906 -1.09765625 5.25390625 C-1.10551147 4.06776733 -1.10551147 4.06776733 -1.11352539 2.85766602 C-1 1 -1 1 0 0 Z " fill="#FCE7DC" transform="translate(728,754)"/>
<path d="M0 0 C0.66 0.33 1.32 0.66 2 1 C-1.27530896 5.63720719 -4.30435607 9.68542782 -9 13 C-8.4352699 9.09170915 -6.57868029 7.10079777 -3.9375 4.25 C-3.20402344 3.45078125 -2.47054687 2.6515625 -1.71484375 1.828125 C-1.14894531 1.22484375 -0.58304688 0.6215625 0 0 Z " fill="#E3F0E7" transform="translate(579,540)"/>
<path d="M0 0 C-2.83285002 1.88856668 -5.6948727 3.50546052 -8.6875 5.125 C-9.68136719 5.66382813 -10.67523437 6.20265625 -11.69921875 6.7578125 C-12.45847656 7.16773438 -13.21773437 7.57765625 -14 8 C-11.23188957 1.78480867 -6.76437522 -0.64422621 0 0 Z " fill="#FDEDE2" transform="translate(751,735)"/>
<path d="M0 0 C0.33 0.99 0.66 1.98 1 3 C-1.3125 6.1875 -1.3125 6.1875 -4 9 C-4.66 9 -5.32 9 -6 9 C-4.47291037 5.56404834 -2.40072955 2.88087546 0 0 Z " fill="#406A51" transform="translate(290,675)"/>
<path d="M0 0 C0.66 0.33 1.32 0.66 2 1 C-0.31 2.65 -2.62 4.3 -5 6 C-5.33 5.01 -5.66 4.02 -6 3 C-4.03533587 1.93224776 -2.03144641 0.93446535 0 0 Z " fill="#BADBC6" transform="translate(687,372)"/>
<path d="M0 0 C0.99 0.33 1.98 0.66 3 1 C0.03 3.475 0.03 3.475 -3 6 C-3 3 -3 3 -1.5 1.3125 C-0.7575 0.6628125 -0.7575 0.6628125 0 0 Z " fill="#3E6A51" transform="translate(554,502)"/>
</svg>
